<?xml version="1.0" encoding="UTF-8"?>
<svg id="Calque_1" data-name="Calque 1" xmlns="http://www.w3.org/2000/svg" viewBox="0 0 296 156.12">
  <path d="M144,0l-3.93,16.57-42.02.48c.41,2.22-3.71,12.95-.55,12.95h35c.21,0,1.13-1.49,1.49-1-.21,2.89-1.44,15.13-3.62,15.87l-38.36.14-2.01,14.99h42c-1.02,4.36-2.98,10.08-3.03,14.48-.02,1.56-.22,1.73,1.52,1.51L147,0h62l-3.94,16.56-42.05.45c.97,2.31-3.88,12.99-.51,12.99h35c.21,0,1.13-1.5,1.49-1l-2.92,15.57-37.44.56c-2.33.79-3.51,12.08-3.63,14.87h42l-4,16.99h3.98S212.01,0,212.01,0l21.89.09,17.6,49.91L262.5,0h18.5l-16,77h31l-4.13,16.87-37.86.14-3.01,14.99h33l-4.63,15.87-31.24.26-6.13,28.87h-18.5c-.33,0-1.85,2.55-1.49-.48l15.94-75.88,6.07-1.15-17.02-49.49c-2.65-.25-1.62-.04-1.98,1.5-3.71,15.94-5.93,32.4-9.06,48.46l-16.91.1-12.04,60.95h36l-3,16h-57l16-77h-30l12.04,7.46c19.77,27.41,3.33,69.74-32.49,71.58-44.4,2.28-47.45-48.62-20.02-72.02l12.48-7.02h-17l-36,77h-21v-51l-21.16,50.83-19.86.73L0,77h20v53.5c0,.87-2.89,2.97.99,2.5l22.01-56h18v57l23-57h-18L82,0h62ZM129.74,92.24c-21.44,3.69-28.13,52.13.52,47.52,21.14-3.41,30.39-52.84-.52-47.52Z"/>
  <polygon points="79 0 75.87 16.87 53.1 17.1 39.5 77 21 77 33 17 11 17 14.5 0 79 0"/>
</svg>